<svg id="Grupo_9" data-name="Grupo 9" xmlns="http://www.w3.org/2000/svg" width="356.287" height="136.34" viewBox="0 0 356.287 136.34">
  <g id="Grupo_1" data-name="Grupo 1" transform="translate(2.486 12.916)">
    <path id="Trazado_1" data-name="Trazado 1" d="M501.976,64.245a3.99,3.99,0,0,1-1.072,3.026,4.345,4.345,0,0,1-3.121,1.025,4.225,4.225,0,0,1-3.062-1.048,3.983,3.983,0,0,1-1.084-3,3.943,3.943,0,0,1,1.108-2.99,4.217,4.217,0,0,1,3.039-1.06,4.306,4.306,0,0,1,3.1,1.048A3.963,3.963,0,0,1,501.976,64.245Zm-7.123,8.148h5.812l1.216,23.23h-8.245Z" transform="translate(-493.637 -49.76)" fill="#fff"/>
    <path id="Trazado_2" data-name="Trazado 2" d="M517.57,86.192H510.3V51.36h19.965v6.052h-12.7v8.981h11.817v6.029H517.57Z" transform="translate(-494.843 -49.121)" fill="#fff"/>
    <path id="Trazado_3" data-name="Trazado 3" d="M550.382,87.27q-6.433,0-10.055-3.55t-3.621-10.055q0-6.694,3.347-10.352t9.257-3.657q5.648,0,8.792,3.216t3.145,8.887v3.527H544.068a6.988,6.988,0,0,0,1.836,4.837,6.456,6.456,0,0,0,4.812,1.739,19.977,19.977,0,0,0,4.552-.5,22.793,22.793,0,0,0,4.479-1.6v5.622a17.066,17.066,0,0,1-4.073,1.418A25.7,25.7,0,0,1,550.382,87.27Zm-1.025-22.444a4.605,4.605,0,0,0-3.621,1.466,6.767,6.767,0,0,0-1.5,4.158h10.2a6.054,6.054,0,0,0-1.4-4.158A4.761,4.761,0,0,0,549.357,64.826Z" transform="translate(-496.754 -49.721)" fill="#fff"/>
    <path id="Trazado_4" data-name="Trazado 4" d="M576.692,86.018h-7.266V48.946h7.266Z" transform="translate(-499.122 -48.946)" fill="#fff"/>
    <path id="Trazado_5" data-name="Trazado 5" d="M585.04,52.5q0-3.55,3.954-3.549t3.955,3.549a3.459,3.459,0,0,1-.989,2.633,4.15,4.15,0,0,1-2.966.942Q585.039,56.069,585.04,52.5Zm7.576,33.522H585.35V59.381h7.266Z" transform="translate(-500.252 -48.946)" fill="#fff"/>
    <path id="Trazado_6" data-name="Trazado 6" d="M612.011,87.27q-12.438,0-12.438-13.652,0-6.792,3.383-10.376t9.7-3.585a18.5,18.5,0,0,1,8.29,1.81L618.8,67.09q-1.716-.692-3.193-1.133a10.306,10.306,0,0,0-2.954-.441q-5.671,0-5.672,8.054,0,7.814,5.672,7.814a12.92,12.92,0,0,0,3.884-.56,14.007,14.007,0,0,0,3.573-1.75v6.218a11.688,11.688,0,0,1-3.562,1.549A20.043,20.043,0,0,1,612.011,87.27Z" transform="translate(-501.304 -49.721)" fill="#fff"/>
    <path id="Trazado_7" data-name="Trazado 7" d="M627.926,52.5q0-3.55,3.954-3.549t3.955,3.549a3.459,3.459,0,0,1-.99,2.633,4.148,4.148,0,0,1-2.966.942Q627.925,56.069,627.926,52.5ZM635.5,86.018h-7.267V59.381H635.5Z" transform="translate(-503.356 -48.946)" fill="#fff"/>
    <path id="Trazado_8" data-name="Trazado 8" d="M655.219,81.076a15.735,15.735,0,0,0,4.576-.833v5.408a16.325,16.325,0,0,1-6.672,1.215q-4.358,0-6.35-2.2t-1.988-6.611V65.209h-3.479V62.135l4-2.429,2.1-5.623h4.646v5.671h7.457v5.456h-7.457V78.051a2.835,2.835,0,0,0,.869,2.288A3.436,3.436,0,0,0,655.219,81.076Z" transform="translate(-504.325 -49.318)" fill="#fff"/>
    <path id="Trazado_9" data-name="Trazado 9" d="M683.715,86.789l-1.405-3.621h-.191a10.714,10.714,0,0,1-3.776,3.2,12.2,12.2,0,0,1-5.061.893,8.192,8.192,0,0,1-6.042-2.192,8.42,8.42,0,0,1-2.2-6.243A7.033,7.033,0,0,1,668,72.577q2.965-2.013,8.946-2.227l4.622-.143V69.039q0-4.049-4.147-4.05a18.888,18.888,0,0,0-7.5,1.929l-2.406-4.908a21.659,21.659,0,0,1,10.2-2.406q5.36,0,8.22,2.335t2.858,7.1v17.75Zm-2.144-12.342-2.811.1a9.015,9.015,0,0,0-4.719,1.144,3.6,3.6,0,0,0-1.548,3.193q0,3.074,3.527,3.073a5.583,5.583,0,0,0,4.038-1.454,5.1,5.1,0,0,0,1.513-3.86Z" transform="translate(-506.042 -49.717)" fill="#fff"/>
    <path id="Trazado_10" data-name="Trazado 10" d="M709.294,87.27q-12.438,0-12.438-13.652,0-6.792,3.383-10.376t9.7-3.585a18.5,18.5,0,0,1,8.29,1.81l-2.145,5.624q-1.716-.692-3.193-1.133a10.3,10.3,0,0,0-2.953-.441q-5.673,0-5.672,8.054,0,7.814,5.672,7.814a12.914,12.914,0,0,0,3.883-.56,14.009,14.009,0,0,0,3.573-1.75v6.218a11.688,11.688,0,0,1-3.562,1.549A20.038,20.038,0,0,1,709.294,87.27Z" transform="translate(-508.345 -49.721)" fill="#fff"/>
    <path id="Trazado_11" data-name="Trazado 11" d="M725.209,52.5q0-3.55,3.954-3.549t3.955,3.549a3.459,3.459,0,0,1-.989,2.633,4.152,4.152,0,0,1-2.967.942Q725.209,56.069,725.209,52.5Zm7.577,33.522H725.52V59.381h7.266Z" transform="translate(-510.397 -48.946)" fill="#fff"/>
    <path id="Trazado_12" data-name="Trazado 12" d="M765.571,73.427q0,6.5-3.43,10.173t-9.555,3.67a13.367,13.367,0,0,1-6.766-1.68,11.167,11.167,0,0,1-4.5-4.825,16.225,16.225,0,0,1-1.572-7.338q0-6.527,3.408-10.149t9.578-3.621a13.437,13.437,0,0,1,6.766,1.668,11.124,11.124,0,0,1,4.5,4.788A16.066,16.066,0,0,1,765.571,73.427Zm-18.418,0a11.171,11.171,0,0,0,1.3,5.98,4.643,4.643,0,0,0,4.228,2.025,4.568,4.568,0,0,0,4.182-2.013,11.332,11.332,0,0,0,1.275-5.992,11,11,0,0,0-1.287-5.932,5.47,5.47,0,0,0-8.41-.012A10.987,10.987,0,0,0,747.153,73.427Z" transform="translate(-511.449 -49.721)" fill="#fff"/>
    <path id="Trazado_13" data-name="Trazado 13" d="M798.541,86.793h-7.267V71.235a7.482,7.482,0,0,0-1.023-4.324,3.728,3.728,0,0,0-3.265-1.442,4.907,4.907,0,0,0-4.408,2.037q-1.357,2.036-1.357,6.754V86.793h-7.266V60.156h5.55l.978,3.407h.4a7.687,7.687,0,0,1,3.349-2.919,11.4,11.4,0,0,1,4.848-.988q4.647,0,7.054,2.513t2.405,7.255Z" transform="translate(-513.925 -49.721)" fill="#fff"/>
    <path id="Trazado_14" data-name="Trazado 14" d="M820.35,87.27q-6.433,0-10.055-3.55t-3.62-10.055q0-6.694,3.347-10.352t9.257-3.657q5.648,0,8.792,3.216t3.145,8.887v3.527H814.036a6.988,6.988,0,0,0,1.836,4.837,6.456,6.456,0,0,0,4.812,1.739,19.975,19.975,0,0,0,4.552-.5,22.792,22.792,0,0,0,4.479-1.6v5.622a17.058,17.058,0,0,1-4.074,1.418A25.686,25.686,0,0,1,820.35,87.27Zm-1.025-22.444a4.608,4.608,0,0,0-3.621,1.466,6.773,6.773,0,0,0-1.5,4.158h10.2a6.054,6.054,0,0,0-1.4-4.158A4.761,4.761,0,0,0,819.325,64.826Z" transform="translate(-516.294 -49.721)" fill="#fff"/>
    <path id="Trazado_15" data-name="Trazado 15" d="M857.852,78.883A7.335,7.335,0,0,1,855,85.125q-2.847,2.146-8.516,2.145a26.709,26.709,0,0,1-4.956-.393,18.7,18.7,0,0,1-3.836-1.156v-6a25.375,25.375,0,0,0,4.562,1.6,18.5,18.5,0,0,0,4.467.643q3.956,0,3.956-2.287a1.912,1.912,0,0,0-.525-1.394,7.587,7.587,0,0,0-1.812-1.214q-1.284-.68-3.43-1.585a21.509,21.509,0,0,1-4.515-2.382,6.711,6.711,0,0,1-2.1-2.514,8.307,8.307,0,0,1-.654-3.49A6.326,6.326,0,0,1,840.4,61.6q2.754-1.942,7.8-1.942a22.14,22.14,0,0,1,9.363,2.1l-2.192,5.241q-2-.857-3.74-1.405a11.765,11.765,0,0,0-3.549-.548q-3.217,0-3.217,1.739a2.047,2.047,0,0,0,1.036,1.692,28.147,28.147,0,0,0,4.539,2.121,21.135,21.135,0,0,1,4.575,2.358,6.985,6.985,0,0,1,2.145,2.526A7.784,7.784,0,0,1,857.852,78.883Z" transform="translate(-518.535 -49.721)" fill="#fff"/>
    <path id="Trazado_16" data-name="Trazado 16" d="M864.33,82.786a4,4,0,0,1,1.073-3.027,4.348,4.348,0,0,1,3.121-1.024,4.228,4.228,0,0,1,3.061,1.048,4.63,4.63,0,0,1-.011,5.968,4.152,4.152,0,0,1-3.05,1.084,4.276,4.276,0,0,1-3.1-1.06A3.97,3.97,0,0,1,864.33,82.786Zm7.124-8.148h-5.813L864.426,51.36h8.244Z" transform="translate(-520.467 -49.121)" fill="#fff"/>
  </g>
  <g id="Grupo_4" data-name="Grupo 4" transform="translate(131.99 59.303)">
    <g id="Grupo_3" data-name="Grupo 3" transform="translate(10.788 2.551)">
      <path id="Trazado_17" data-name="Trazado 17" d="M698.426,148.885h0a2.508,2.508,0,0,0-1.786-.626,2.447,2.447,0,0,0-1.7.819,16.618,16.618,0,0,1-24.657,0,2.472,2.472,0,0,0-3.486-.193,2.471,2.471,0,0,0-.194,3.488,21.556,21.556,0,0,0,32.018,0A2.476,2.476,0,0,0,698.426,148.885Z" transform="translate(-646.402 -105.072)" fill="#fff"/>
      <path id="Trazado_18" data-name="Trazado 18" d="M681.082,101.7a36.207,36.207,0,1,0,36.207,36.207A36.248,36.248,0,0,0,681.082,101.7Zm0,68.293a32.086,32.086,0,1,1,32.087-32.086A32.121,32.121,0,0,1,681.082,170Z" transform="translate(-644.875 -101.703)" fill="#fff"/>
      <g id="Grupo_2" data-name="Grupo 2" transform="translate(14.847 24.292)">
        <path id="Trazado_19" data-name="Trazado 19" d="M696.8,127.89a8.777,8.777,0,0,0-8.767,8.767,2.47,2.47,0,0,0,4.94,0,3.827,3.827,0,1,1,7.655,0,2.47,2.47,0,0,0,4.94,0A8.777,8.777,0,0,0,696.8,127.89Z" transform="translate(-662.845 -127.89)" fill="#fff"/>
        <path id="Trazado_20" data-name="Trazado 20" d="M669.646,127.89a8.776,8.776,0,0,0-8.766,8.767,2.47,2.47,0,0,0,4.94,0,3.827,3.827,0,1,1,7.654,0,2.47,2.47,0,0,0,4.94,0A8.777,8.777,0,0,0,669.646,127.89Z" transform="translate(-660.88 -127.89)" fill="#fff"/>
      </g>
    </g>
    <path id="Trazado_21" data-name="Trazado 21" d="M648.573,106.479l-2.368-.873a6.985,6.985,0,0,1-4.135-4.136L641.2,99.1a.226.226,0,0,0-.425,0l-.874,2.368a6.984,6.984,0,0,1-4.135,4.136l-2.368.873a.227.227,0,0,0,0,.426l2.368.873a6.984,6.984,0,0,1,4.135,4.136l.874,2.368a.226.226,0,0,0,.425,0l.874-2.368a6.982,6.982,0,0,1,4.135-4.136l2.369-.873a.227.227,0,0,0,0-.426Z" transform="translate(-633.245 -98.953)" fill="#fff"/>
    <path id="Trazado_22" data-name="Trazado 22" d="M732.3,172.841l-2.368-.873a6.983,6.983,0,0,1-4.135-4.135l-.874-2.369a.227.227,0,0,0-.425,0l-.874,2.368a6.984,6.984,0,0,1-4.135,4.136l-2.369.873a.227.227,0,0,0,0,.426l2.369.874a6.981,6.981,0,0,1,4.135,4.135l.874,2.368a.226.226,0,0,0,.425,0l.874-2.368a6.98,6.98,0,0,1,4.135-4.135l2.368-.874a.227.227,0,0,0,0-.426Z" transform="translate(-639.305 -103.756)" fill="#fff"/>
  </g>
  <g id="Grupo_5" data-name="Grupo 5">
    <path id="Trazado_23" data-name="Trazado 23" d="M492.783,38.85H829.6c4.539,0,9.093.108,13.63,0,.2,0,.4,0,.594,0a1.891,1.891,0,0,0,0-3.78H507.006c-4.539,0-9.093-.108-13.63,0-.2,0-.4,0-.594,0a1.891,1.891,0,0,0,0,3.78Z" transform="translate(-490.957 -35.022)" fill="#fff"/>
  </g>
  <g id="Grupo_8" data-name="Grupo 8" transform="translate(0.835 73.751)">
    <g id="Grupo_6" data-name="Grupo 6">
      <path id="Trazado_24" data-name="Trazado 24" d="M493.683,118.308H617.535a1.891,1.891,0,0,0,0-3.78H493.683a1.891,1.891,0,0,0,0,3.78Z" transform="translate(-491.857 -114.528)" fill="#fff"/>
    </g>
    <g id="Grupo_7" data-name="Grupo 7" transform="translate(215.031)">
      <path id="Trazado_25" data-name="Trazado 25" d="M725.492,118.308h136.77a1.891,1.891,0,0,0,0-3.78H725.492a1.891,1.891,0,0,0,0,3.78Z" transform="translate(-723.666 -114.528)" fill="#fff"/>
    </g>
  </g>
</svg>
