<svg xmlns="http://www.w3.org/2000/svg" xmlns:xlink="http://www.w3.org/1999/xlink" width="44.495" height="44.5" viewBox="0 0 44.495 44.5">
  <defs>
    <linearGradient id="linear-gradient" x1="0.49" y1="-0.398" x2="0.508" y2="1.168" gradientUnits="objectBoundingBox">
      <stop offset="0.132" stop-color="#5eca4a"/>
      <stop offset="0.794" stop-color="#43942b"/>
    </linearGradient>
  </defs>
  <g id="Grupo_7050" data-name="Grupo 7050" transform="translate(-173.504 -591)">
    <path id="Trazado_8429" data-name="Trazado 8429" d="M218,613.239A22.247,22.247,0,1,1,195.743,591,22.253,22.253,0,0,1,218,613.239Z" transform="translate(0 0)" fill="url(#linear-gradient)"/>
    <g id="Grupo_7049" data-name="Grupo 7049" transform="translate(181.517 598.417)">
      <path id="Trazado_8430" data-name="Trazado 8430" d="M213.973,613.169A14.463,14.463,0,0,0,199.872,602a17.785,17.785,0,0,0-2.765.288,14.44,14.44,0,0,0-9.9,21.065.907.907,0,0,1,.133.709c-.676,2.2-1.3,4.488-1.9,6.715-.1.4-.1.4.272.288,2.344-.632,4.665-1.23,7-1.807a.572.572,0,0,1,.521.034,14.466,14.466,0,0,0,20.732-16.123Zm-12.067,15.125a5.844,5.844,0,0,1-1.668.144,12.456,12.456,0,0,1-6.521-1.662.762.762,0,0,0-.737-.122c-1.307.322-2.582.665-3.878,1-.266.089-.294.045-.233-.233.343-1.2.665-2.415,1.042-3.656a.9.9,0,0,0-.15-.854,11.921,11.921,0,0,1,.426-13.463,11.453,11.453,0,0,1,12.227-4.709,11.332,11.332,0,0,1,9.181,9.12A11.913,11.913,0,0,1,201.906,628.295Z" transform="translate(-185.388 -602)" fill="#fff" fill-rule="evenodd"/>
      <path id="Trazado_8431" data-name="Trazado 8431" d="M207.123,627.089a3.867,3.867,0,0,1-1.5-.21,14.647,14.647,0,0,1-7.823-5.74,8.177,8.177,0,0,1-1.679-3.4,3.941,3.941,0,0,1,1.3-3.867,2.294,2.294,0,0,1,1.928-.3,1.926,1.926,0,0,1,.321.4c.41,1.02.848,1.972,1.264,2.959a.767.767,0,0,1-.061.609,5.61,5.61,0,0,1-.886,1.185.548.548,0,0,0-.089.8,9.663,9.663,0,0,0,4.936,4.233.554.554,0,0,0,.743-.166c.371-.421.737-.887,1.081-1.341a.623.623,0,0,1,.8-.21c.709.332,1.407.665,2.083.975a4.471,4.471,0,0,0,.487.222c.715.355.715.41.632,1.174-.094,1.507-1.253,2.272-2.577,2.648A2.586,2.586,0,0,1,207.123,627.089Z" transform="translate(-188.854 -605.737)" fill="#fff" fill-rule="evenodd"/>
    </g>
  </g>
</svg>
