<svg xmlns="http://www.w3.org/2000/svg" width="150" height="46.437" viewBox="0 0 150 46.437">
  <g id="Grupo_22" data-name="Grupo 22" transform="translate(-58.603 -122.398)">
    <path id="Trazado_40" data-name="Trazado 40" d="M140.011,142.965a3.01,3.01,0,0,1-.933,1.248,4.592,4.592,0,0,1-1.658.8,9.29,9.29,0,0,1-2.465.284h-5.1V130.607h4.976a9.268,9.268,0,0,1,2.389.263,4.168,4.168,0,0,1,1.554.744,2.7,2.7,0,0,1,.836,1.143,4.035,4.035,0,0,1,.254,1.458,4.312,4.312,0,0,1-.2,1.376,2.789,2.789,0,0,1-1.408,1.624,6.372,6.372,0,0,1-1.079.422v.123a6.976,6.976,0,0,1,1.175.356,3.187,3.187,0,0,1,.995.64,3.025,3.025,0,0,1,.693,1.039,3.967,3.967,0,0,1,.261,1.533,4.373,4.373,0,0,1-.293,1.635m-2.739-9.8a2.077,2.077,0,0,0-.9-.608,4.105,4.105,0,0,0-1.132-.223c-.4-.019-.746-.03-1.039-.03h-2.182v4.616h2.142a7.448,7.448,0,0,0,1.225-.106,3.607,3.607,0,0,0,1.124-.377,2.208,2.208,0,0,0,.818-.765,2.38,2.38,0,0,0,.314-1.292,1.778,1.778,0,0,0-.369-1.215m.464,6.735a2.181,2.181,0,0,0-.831-.768,3.834,3.834,0,0,0-1.192-.4,8.188,8.188,0,0,0-1.408-.117h-2.288v4.972h2.413a10.229,10.229,0,0,0,1.416-.095,3.419,3.419,0,0,0,1.154-.357,1.911,1.911,0,0,0,.768-.744,2.579,2.579,0,0,0,.27-1.259,2.3,2.3,0,0,0-.3-1.237" transform="translate(-14.989 -1.727)" fill="#fff"/>
    <path id="Trazado_41" data-name="Trazado 41" d="M152.6,146.4c-.762.028-1.522.041-2.276.041a12,12,0,0,1-1.961-.144,4.105,4.105,0,0,1-1.531-.547,2.7,2.7,0,0,1-1-1.1,4.005,4.005,0,0,1-.356-1.815,3.047,3.047,0,0,1,.579-1.981,3.413,3.413,0,0,1,1.45-1.03,6.393,6.393,0,0,1,1.894-.375q1.021-.053,1.886-.053c.236,0,.5.01.8.033s.622.03.988.03a13.282,13.282,0,0,0-.062-1.436,1.531,1.531,0,0,0-.369-.882,1.723,1.723,0,0,0-.944-.453,10.124,10.124,0,0,0-1.8-.124,12.687,12.687,0,0,0-1.826.136c-.626.09-1.237.193-1.822.306v-1.637a19.5,19.5,0,0,1,3.879-.4,17.438,17.438,0,0,1,2.078.115,4.2,4.2,0,0,1,1.578.494,2.5,2.5,0,0,1,1,1.1,4.448,4.448,0,0,1,.355,1.944v7.573c-.937.111-1.789.182-2.549.209m.494-5.392c-.452-.014-.839-.028-1.158-.043s-.562-.019-.716-.019a14.024,14.024,0,0,0-1.485.072,3.585,3.585,0,0,0-1.127.293,1.647,1.647,0,0,0-.706.6,1.785,1.785,0,0,0-.245.984,1.908,1.908,0,0,0,.286,1.1,1.7,1.7,0,0,0,.758.609,3.782,3.782,0,0,0,1.085.261,11.918,11.918,0,0,0,1.244.064c.279,0,.559-.011.842-.032s.688-.044,1.222-.073Z" transform="translate(-18.275 -2.644)" fill="#fff"/>
    <path id="Trazado_42" data-name="Trazado 42" d="M169.365,146.211v-7.045c0-.295-.009-.587-.028-.882a2.02,2.02,0,0,0-.21-.788,1.4,1.4,0,0,0-.568-.569,2.247,2.247,0,0,0-1.1-.222,4.151,4.151,0,0,0-.879.107c-.325.069-.644.154-.965.25s-.633.208-.933.327-.572.227-.81.326v8.495h-2.078V135.16h1.931v1.009q.817-.354,1.407-.591a9.384,9.384,0,0,1,1.068-.374,5.9,5.9,0,0,1,.944-.189,10.092,10.092,0,0,1,1.03-.05,4.077,4.077,0,0,1,1.184.178,2.865,2.865,0,0,1,1.072.587,3.076,3.076,0,0,1,.764,1.048,3.717,3.717,0,0,1,.293,1.541v7.89Z" transform="translate(-21.707 -2.644)" fill="#fff"/>
    <path id="Trazado_43" data-name="Trazado 43" d="M184.768,146.388c-.462.037-.919.051-1.364.051a7.792,7.792,0,0,1-2.455-.365,5.09,5.09,0,0,1-1.909-1.113A4.946,4.946,0,0,1,177.8,143.1a7.107,7.107,0,0,1-.441-2.615,5.675,5.675,0,0,1,.46-2.349,5.047,5.047,0,0,1,1.257-1.73,5.488,5.488,0,0,1,1.879-1.069,7.141,7.141,0,0,1,2.318-.367c.292,0,.559,0,.8.011s.463.021.679.042.437.05.662.085.469.072.736.113v1.639c-.45-.069-.833-.127-1.154-.171a8.106,8.106,0,0,0-1.008-.062,6.875,6.875,0,0,0-1.741.212,3.86,3.86,0,0,0-1.4.67,3.093,3.093,0,0,0-.931,1.2,4.381,4.381,0,0,0-.337,1.817,4.089,4.089,0,0,0,1.188,3.219,4.588,4.588,0,0,0,3.238,1.039c.309-.013.636-.034.988-.062s.767-.085,1.259-.169v1.616a11.339,11.339,0,0,1-1.491.22" transform="translate(-24.983 -2.644)" fill="#fff"/>
    <path id="Trazado_44" data-name="Trazado 44" d="M201.063,142.978a5.362,5.362,0,0,1-1.154,1.857,5.243,5.243,0,0,1-1.76,1.207,5.709,5.709,0,0,1-2.236.43,6.126,6.126,0,0,1-2.359-.43,4.834,4.834,0,0,1-1.752-1.207,5.114,5.114,0,0,1-1.081-1.847,7.259,7.259,0,0,1-.367-2.37,7.069,7.069,0,0,1,.376-2.379,5,5,0,0,1,1.082-1.8,4.713,4.713,0,0,1,1.743-1.131,6.478,6.478,0,0,1,2.359-.4,6.4,6.4,0,0,1,2.348.4,4.7,4.7,0,0,1,2.832,2.926,6.971,6.971,0,0,1,.377,2.379,6.607,6.607,0,0,1-.409,2.36m-2.656-5.417a3.381,3.381,0,0,0-4.985,0,4.9,4.9,0,0,0-.845,3.057,5.233,5.233,0,0,0,.845,3.141,3.259,3.259,0,0,0,4.985,0,5.25,5.25,0,0,0,.845-3.141,4.919,4.919,0,0,0-.845-3.057" transform="translate(-27.715 -2.632)" fill="#fff"/>
    <path id="Trazado_45" data-name="Trazado 45" d="M132.081,157.787v4.868h5.54v1.782h-5.54v6.251h-2.226V156h9.34v1.783Z" transform="translate(-14.989 -7.069)" fill="#fff"/>
    <path id="Trazado_46" data-name="Trazado 46" d="M143.516,154.675h2.1v2.034h-2.1Zm0,4.72h2.1v11.014h-2.1Z" transform="translate(-17.862 -6.79)" fill="#fff"/>
    <path id="Trazado_47" data-name="Trazado 47" d="M157.889,171.605v-7.044c0-.292-.01-.589-.032-.884a1.96,1.96,0,0,0-.21-.786,1.384,1.384,0,0,0-.566-.57,2.244,2.244,0,0,0-1.1-.22,4.1,4.1,0,0,0-.882.106c-.322.069-.642.154-.965.25s-.631.208-.933.328-.572.227-.806.326v8.493h-2.08V160.556h1.931v1.008c.543-.236,1.015-.432,1.406-.591a9.754,9.754,0,0,1,1.067-.374,6.313,6.313,0,0,1,.948-.187,9.55,9.55,0,0,1,1.027-.051,4.147,4.147,0,0,1,1.185.178,2.856,2.856,0,0,1,1.071.589,3.06,3.06,0,0,1,.765,1.046,3.69,3.69,0,0,1,.293,1.543v7.889Z" transform="translate(-19.293 -7.986)" fill="#fff"/>
    <path id="Trazado_48" data-name="Trazado 48" d="M172.635,171.793q-1.143.043-2.273.043a11.8,11.8,0,0,1-1.965-.148,4.137,4.137,0,0,1-1.529-.545,2.676,2.676,0,0,1-1-1.1,4.02,4.02,0,0,1-.355-1.813,3.04,3.04,0,0,1,.579-1.983,3.389,3.389,0,0,1,1.45-1.028,6.358,6.358,0,0,1,1.894-.377c.679-.034,1.309-.053,1.883-.053.238,0,.506.012.8.033s.622.032.991.032a12.965,12.965,0,0,0-.066-1.437,1.461,1.461,0,0,0-.369-.882,1.722,1.722,0,0,0-.941-.452,9.939,9.939,0,0,0-1.794-.126,12.91,12.91,0,0,0-1.826.136c-.63.092-1.237.193-1.826.306v-1.639a19.656,19.656,0,0,1,3.882-.4,17.479,17.479,0,0,1,2.078.115,4.193,4.193,0,0,1,1.575.494,2.486,2.486,0,0,1,1.007,1.1,4.451,4.451,0,0,1,.355,1.94v7.573q-1.407.169-2.551.209m.5-5.392c-.452-.013-.838-.028-1.161-.041s-.561-.021-.713-.021a13.512,13.512,0,0,0-1.485.073,3.57,3.57,0,0,0-1.129.293,1.606,1.606,0,0,0-.7.6,1.779,1.779,0,0,0-.246.984,1.887,1.887,0,0,0,.286,1.1,1.719,1.719,0,0,0,.759.61,3.865,3.865,0,0,0,1.084.259,11.486,11.486,0,0,0,1.244.066c.279,0,.561-.01.842-.032s.688-.044,1.222-.076Z" transform="translate(-22.49 -7.986)" fill="#fff"/>
    <path id="Trazado_49" data-name="Trazado 49" d="M189.4,171.605v-7.044c0-.292-.01-.589-.032-.884a1.959,1.959,0,0,0-.208-.786,1.389,1.389,0,0,0-.566-.57,2.251,2.251,0,0,0-1.1-.22,4.1,4.1,0,0,0-.882.106c-.321.069-.642.154-.963.25s-.633.208-.933.328-.57.227-.808.326v8.493h-2.078V160.556h1.93v1.008q.821-.354,1.406-.591a9.612,9.612,0,0,1,1.069-.374,6.3,6.3,0,0,1,.945-.187,9.585,9.585,0,0,1,1.029-.051,4.128,4.128,0,0,1,1.184.178,2.863,2.863,0,0,1,1.072.589,3.077,3.077,0,0,1,.764,1.046,3.688,3.688,0,0,1,.3,1.543v7.889Z" transform="translate(-25.921 -7.986)" fill="#fff"/>
    <path id="Trazado_50" data-name="Trazado 50" d="M207.485,157.087v13.175l-.924.137c-.334.047-.678.09-1.027.125s-.7.064-1.058.085-.688.03-1,.03a7.7,7.7,0,0,1-2.412-.367,5.528,5.528,0,0,1-1.929-1.079,4.971,4.971,0,0,1-1.282-1.773,6.106,6.106,0,0,1-.459-2.445,7.516,7.516,0,0,1,.366-2.413,5.126,5.126,0,0,1,1.078-1.857,5.01,5.01,0,0,1,1.754-1.2,6.309,6.309,0,0,1,2.4-.428c.224,0,.529,0,.912.009a13.13,13.13,0,0,1,1.48.137v-4.552h2.1Zm-2.1,3.8c-.45-.069-.825-.116-1.127-.146s-.572-.04-.812-.04a3.757,3.757,0,0,0-2.852,1.028,4.489,4.489,0,0,0-.979,3.187,5.052,5.052,0,0,0,.263,1.678,3.779,3.779,0,0,0,.759,1.3,3.345,3.345,0,0,0,1.233.85,4.366,4.366,0,0,0,1.684.3c.2,0,.437-.007.727-.023s.654-.04,1.1-.081Z" transform="translate(-29.197 -6.79)" fill="#fff"/>
    <path id="Trazado_51" data-name="Trazado 51" d="M214.318,154.675h2.1v2.034h-2.1Zm0,4.72h2.1v11.014h-2.1Z" transform="translate(-32.756 -6.79)" fill="#fff"/>
    <path id="Trazado_52" data-name="Trazado 52" d="M228.694,171.605v-7.044c0-.292-.01-.589-.033-.884a1.96,1.96,0,0,0-.21-.786,1.379,1.379,0,0,0-.566-.57,2.236,2.236,0,0,0-1.1-.22,4.073,4.073,0,0,0-.882.106c-.323.069-.642.154-.963.25s-.636.208-.937.328-.568.227-.805.326v8.493H221.12V160.556h1.93v1.008q.817-.354,1.406-.591a9.438,9.438,0,0,1,1.068-.374,6.344,6.344,0,0,1,.944-.187,9.67,9.67,0,0,1,1.03-.051,4.155,4.155,0,0,1,1.185.178,2.862,2.862,0,0,1,1.069.589,3.036,3.036,0,0,1,.764,1.046,3.664,3.664,0,0,1,.3,1.543v7.889Z" transform="translate(-34.187 -7.986)" fill="#fff"/>
    <path id="Trazado_53" data-name="Trazado 53" d="M243.44,171.793c-.762.028-1.522.043-2.277.043a11.735,11.735,0,0,1-1.961-.148,4.146,4.146,0,0,1-1.533-.545,2.71,2.71,0,0,1-.995-1.1,4,4,0,0,1-.356-1.813,3.018,3.018,0,0,1,.58-1.983,3.37,3.37,0,0,1,1.45-1.028,6.327,6.327,0,0,1,1.893-.377c.681-.034,1.307-.053,1.884-.053.236,0,.5.012.8.033s.622.032.988.032a12.651,12.651,0,0,0-.064-1.437,1.488,1.488,0,0,0-.366-.882,1.732,1.732,0,0,0-.944-.452,9.922,9.922,0,0,0-1.8-.126,12.9,12.9,0,0,0-1.823.136c-.628.092-1.238.193-1.824.306v-1.639a19.628,19.628,0,0,1,3.88-.4,17.432,17.432,0,0,1,2.077.115,4.21,4.21,0,0,1,1.578.494,2.483,2.483,0,0,1,1.005,1.1,4.476,4.476,0,0,1,.353,1.94v7.573c-.935.113-1.787.183-2.547.209m.492-5.392c-.451-.013-.835-.028-1.157-.041s-.565-.021-.716-.021a13.579,13.579,0,0,0-1.485.073,3.583,3.583,0,0,0-1.127.293,1.635,1.635,0,0,0-.706.6,1.786,1.786,0,0,0-.242.984,1.887,1.887,0,0,0,.284,1.1,1.721,1.721,0,0,0,.756.61,3.891,3.891,0,0,0,1.085.259,11.529,11.529,0,0,0,1.244.066c.279,0,.561-.01.843-.032s.686-.044,1.22-.076Z" transform="translate(-37.384 -7.986)" fill="#fff"/>
    <g id="Grupo_21" data-name="Grupo 21" transform="translate(58.603 122.398)">
      <path id="Trazado_54" data-name="Trazado 54" d="M82.481,122.4a23.216,23.216,0,0,0-20.73,12.751c1.9,2.081,8.038,6.886,14.979,5.018a13,13,0,0,0,4.608-2.343c4.44-3.387,7.158-8.426,19.11-6.918A23.179,23.179,0,0,0,82.481,122.4" transform="translate(-59.265 -122.398)" fill="#fff"/>
      <path id="Trazado_55" data-name="Trazado 55" d="M63.915,168.661l.007.01-.007-.011Z" transform="translate(-59.72 -132.129)" fill="#fff"/>
      <path id="Trazado_56" data-name="Trazado 56" d="M63.913,168.659h0Z" transform="translate(-59.72 -132.129)" fill="#fff"/>
      <path id="Trazado_57" data-name="Trazado 57" d="M89.3,168.183c-5.833,2.623-11.493,6.323-25.388-.028l.007.011a23.221,23.221,0,0,0,38.635-.9c-5.869-1.949-9.6-.73-13.254.915" transform="translate(-59.72 -131.626)" fill="#fff"/>
      <path id="Trazado_58" data-name="Trazado 58" d="M59.583,144.238l0,0v0l0,0" transform="translate(-58.809 -126.992)" fill="#fff"/>
      <path id="Trazado_59" data-name="Trazado 59" d="M99.749,139.833c5.472-1.233,6.676-4.072,6.453-5.5a29.868,29.868,0,0,0-4.213-.259c-7.936-.016-13.419,6.2-13.55,6.32,1.189.056,7.063.395,11.31-.561" transform="translate(-64.879 -124.854)" fill="#fff"/>
      <path id="Trazado_60" data-name="Trazado 60" d="M64.8,167.087a31.663,31.663,0,0,0,13.187,3.4H78a23.721,23.721,0,0,0,10.374-2.859,28.313,28.313,0,0,0-10.845-2.295c-6.458.037-10.486.624-12.721,1.756" transform="translate(-59.907 -131.429)" fill="#fff"/>
      <path id="Trazado_61" data-name="Trazado 61" d="M93.29,148.934a9.629,9.629,0,0,1-3.8,1.792c10.869.775,19.009-4.461,20.047-10.434-.54-.279-2.846-2.612-16.244,8.642" transform="translate(-65.1 -126.081)" fill="#fff"/>
      <path id="Trazado_62" data-name="Trazado 62" d="M103.607,141.616a.023.023,0,0,0,0,.01c-1.331,7.613-12.279,11.6-24.64,9.878a44.11,44.11,0,0,1-19.583-7.823l0,.007v0a23.318,23.318,0,0,0,.614,13.906c.287.133,6.373,4.059,27.662-.524a33.233,33.233,0,0,1,15.938.665,23.3,23.3,0,0,0,.013-16.122" transform="translate(-58.603 -126.441)" fill="#fff"/>
    </g>
  </g>
</svg>
