<svg xmlns="http://www.w3.org/2000/svg" xmlns:xlink="http://www.w3.org/1999/xlink" width="385" height="280" viewBox="0 0 385 280">
  <defs>
    <clipPath id="clip-path">
      <rect id="Rectángulo_5" data-name="Rectángulo 5" width="385" height="280" transform="translate(0 -0.146)" fill="none"/>
    </clipPath>
    <linearGradient id="linear-gradient" y1="0.5" x2="1" y2="0.5" gradientUnits="objectBoundingBox">
      <stop offset="0.001" stop-color="#048ff7"/>
      <stop offset="0.074" stop-color="#049ff6"/>
      <stop offset="0.243" stop-color="#05c0f4"/>
      <stop offset="0.417" stop-color="#06d9f3"/>
      <stop offset="0.596" stop-color="#06ebf2"/>
      <stop offset="0.786" stop-color="#06f6f2"/>
      <stop offset="1" stop-color="#07faf2"/>
    </linearGradient>
    <linearGradient id="linear-gradient-2" y1="0.5" x2="1" y2="0.5" gradientUnits="objectBoundingBox">
      <stop offset="0" stop-color="#07faf2"/>
      <stop offset="0.271" stop-color="#06f7f2"/>
      <stop offset="0.454" stop-color="#06eef2"/>
      <stop offset="0.611" stop-color="#06dff3"/>
      <stop offset="0.753" stop-color="#05c9f4"/>
      <stop offset="0.884" stop-color="#04aef5"/>
      <stop offset="1" stop-color="#048ff7"/>
    </linearGradient>
  </defs>
  <g id="Grupo_15350" data-name="Grupo 15350" transform="translate(-889 22)">
    <g id="Grupo_15319" data-name="Grupo 15319">
      <g id="Grupo_14" data-name="Grupo 14" transform="translate(750 -13.854)">
        <g id="Grupo_13" data-name="Grupo 13" transform="translate(139 -8)" clip-path="url(#clip-path)">
          <g id="Grupo_12" data-name="Grupo 12" transform="translate(7.694 31.203)">
            <ellipse id="Elipse_1" data-name="Elipse 1" cx="157.715" cy="58.233" rx="157.715" ry="58.233" transform="translate(0 175.804)" fill="#511aea"/>
            <path id="Trazado_26" data-name="Trazado 26" d="M170.58,224.64c-4.145-2.393-4.145-6.273,0-8.665l57.868-33.411c5.922-3.418,15.52-3.418,21.442,0l121.28,70.021c4.144,2.393,4.144,6.272,0,8.665L320.8,290.328c-4.145,2.393-10.985,6.328-15.75,6.78a22.971,22.971,0,0,1-13.195-2.448Z" transform="translate(-148.156 -32.856)" fill="#230962" opacity="0.9"/>
            <g id="Grupo_10" data-name="Grupo 10" transform="translate(24.173 89.432)">
              <path id="Trazado_27" data-name="Trazado 27" d="M250.765,127.8l-66.709,38.514-11.465-2.774v14.308a5.168,5.168,0,0,0,2.337,4.049l133.286,75.684c6.456,3.727,16.922,3.727,23.378,0L395.739,220.7a5.166,5.166,0,0,0,2.338-4.049V203.695l-25.013-5.284Z" transform="translate(-172.592 -119.608)" fill="#230962"/>
              <path id="Trazado_28" data-name="Trazado 28" d="M250.765,127.8l-66.709,38.514-11.465-2.774v10.524a5.165,5.165,0,0,0,2.337,4.049L308.215,253.8c6.456,3.727,16.922,3.727,23.378,0l64.146-36.881a5.169,5.169,0,0,0,2.338-4.05v-9.174l-25.013-5.284Z" transform="translate(-172.592 -119.608)" fill="#511aea"/>
              <path id="Trazado_29" data-name="Trazado 29" d="M175.981,167.836c-4.518-2.609-4.518-6.839,0-9.448l63.1-36.428c6.455-3.727,16.921-3.727,23.377,0L394.688,198.3c4.519,2.609,4.519,6.839,0,9.448l-54.914,31.7c-4.518,2.61-11.978,6.9-17.172,7.392-5.078.483-10.47-.406-14.387-2.668Z" transform="translate(-172.592 -119.164)" fill="#fff"/>
              <path id="Trazado_30" data-name="Trazado 30" d="M234.126,135.9c.441.508.179,1.278-.584,1.719l-20.63,11.911a1.816,1.816,0,0,1-2.18-.123h0c-.44-.509-.178-1.279.584-1.719l20.631-11.911a1.813,1.813,0,0,1,2.179.123Z" transform="translate(-174.539 -120.002)" fill="#511aea"/>
              <path id="Trazado_31" data-name="Trazado 31" d="M186.266,169.044l73.982-43.049,122.079,69.864-74.808,43.191Z" transform="translate(-173.294 -119.515)" fill="#dadada"/>
              <path id="Trazado_32" data-name="Trazado 32" d="M187.685,169.084l72.639-42.268L381.046,195.9l-73.454,42.409Z" transform="translate(-173.367 -119.557)" fill="url(#linear-gradient)"/>
              <path id="Trazado_33" data-name="Trazado 33" d="M264.195,126.816,384.917,195.9l-73.455,42.408C323.457,203.065,253.51,172.594,264.195,126.816Z" transform="translate(-177.238 -119.557)" fill="url(#linear-gradient-2)"/>
            </g>
            <g id="Grupo_11" data-name="Grupo 11" transform="translate(122.719)">
              <path id="Trazado_34" data-name="Trazado 34" d="M421.17,24.892H289.564a9.311,9.311,0,0,0-9.311,9.31v71.977a9.31,9.31,0,0,0,9.311,9.31h9.573L317,160.976l25.04-45.487H421.17a9.31,9.31,0,0,0,9.311-9.31V34.2A9.311,9.311,0,0,0,421.17,24.892Z" transform="translate(-276.665 -24.892)" fill="#ed2529"/>
              <path id="Trazado_35" data-name="Trazado 35" d="M417.389,24.892H285.781a9.31,9.31,0,0,0-9.31,9.31v71.977a9.31,9.31,0,0,0,9.31,9.31h9.574l21.452,45.487,21.452-45.487h79.129a9.31,9.31,0,0,0,9.31-9.31V34.2A9.31,9.31,0,0,0,417.389,24.892Z" transform="translate(-276.471 -24.892)" fill="#511aea"/>
            </g>
          </g>
        </g>
      </g>
    </g>
    <g id="Grupo_15349" data-name="Grupo 15349" transform="translate(684.7 -631.34)">
      <path id="Trazado_8493" data-name="Trazado 8493" d="M429.751,745.033l-.044-.128a1.6,1.6,0,0,0-2.782-.486c-4.054,5.139-8.278,7.528-11.594,6.541-2.744-.812-4.245-3.742-5.021-6.058a1.6,1.6,0,0,0-2.782-.483c-4.054,5.139-8.279,7.528-11.594,6.541-2.932-.868-5.094-4.479-5.93-9.906a36.967,36.967,0,0,1-.363-6.869c9.024-2.335,16.01-6.277,21.173-11.916,3.9-4.257,9.856-15.486,7.851-22.711a8.077,8.077,0,0,0-5.786-5.779c-4.235-1.254-9.09.883-13.676,6.016-4.3,4.818-7.956,11.8-10.285,19.658a61.068,61.068,0,0,0-2.335,12.163,80.6,80.6,0,0,1-10.284,1.524l.278,3.2a85.041,85.041,0,0,0,9.837-1.4,39.293,39.293,0,0,0,.418,6.608c1.048,6.8,3.957,11.24,8.19,12.5,4.1,1.213,8.849-.815,13.286-5.6a10.261,10.261,0,0,0,6.109,5.6,8.431,8.431,0,0,0,2.4.344c3.517,0,7.347-2.1,10.964-6.022a11.9,11.9,0,0,0,10.183,5.744h3.147v-3.209h-3.147A8.685,8.685,0,0,1,429.751,745.033ZM392,720.366c2.2-7.414,5.608-13.96,9.6-18.432,3.066-3.432,6.216-5.287,8.882-5.287a5.2,5.2,0,0,1,1.489.211,4.886,4.886,0,0,1,3.606,3.559c1.524,5.493-3.28,15.486-7.126,19.686-4.534,4.95-10.665,8.492-18.566,10.7A58.65,58.65,0,0,1,392,720.366Z" transform="translate(-15 -38.4)" fill="#fff"/>
      <path id="Trazado_8494" data-name="Trazado 8494" d="M17.586,7.494l.561-4.559a1.875,1.875,0,0,0-.839-1.767A8.9,8.9,0,0,0,10.562.337,1.875,1.875,0,0,0,9.32,1.848L8.759,6.409A2.63,2.63,0,0,0,6.873,8.318a4.905,4.905,0,0,0-5.105,4.3L.023,26.79a3.027,3.027,0,0,0,2.635,3.374l.31-2.528a.48.48,0,0,1-.418-.535L4.3,12.926a2.361,2.361,0,0,1,2.232-2.063l-5,40.625A29.05,29.05,0,0,0,3.233,65.4l.478,1.244,1.143.141.489,3.774,1.39-3.544,1.143.141.765-1.091a29.058,29.058,0,0,0,5.03-13.085l5.276-42.859A2.63,2.63,0,0,0,17.586,7.494ZM15.565,3.069,15.082,7l-3.772-.464L11.793,2.6A8.358,8.358,0,0,1,15.565,3.069Zm-8.9,61.374-1.126-.138A26.513,26.513,0,0,1,3.883,54.171l6.85.843A26.5,26.5,0,0,1,6.667,64.443Zm4.5-11.942-7.088-.873L9.33,8.939c.006-.051.065-.068.094-.073l6.919.852a.085.085,0,0,1,.074.094Z" transform="matrix(0.899, 0.438, -0.438, 0.899, 454.413, 649.152)" fill="#fff"/>
    </g>
  </g>
</svg>
