<svg xmlns="http://www.w3.org/2000/svg" xmlns:xlink="http://www.w3.org/1999/xlink" width="385.366" height="280" viewBox="0 0 385.366 280">
  <defs>
    <clipPath id="clip-path">
      <rect id="Rectángulo_484" data-name="Rectángulo 484" width="385.366" height="280" fill="none"/>
    </clipPath>
    <linearGradient id="linear-gradient" y1="0.5" x2="1" y2="0.5" gradientUnits="objectBoundingBox">
      <stop offset="0" stop-color="#a703f6"/>
      <stop offset="0.469" stop-color="#d015ae"/>
      <stop offset="0.824" stop-color="#ec227e"/>
      <stop offset="1" stop-color="#f7276c"/>
    </linearGradient>
    <linearGradient id="linear-gradient-2" y1="0.5" x2="1" y2="0.5" gradientUnits="objectBoundingBox">
      <stop offset="0" stop-color="#f7276c"/>
      <stop offset="0.151" stop-color="#f42570"/>
      <stop offset="0.318" stop-color="#ec227d"/>
      <stop offset="0.493" stop-color="#df1c93"/>
      <stop offset="0.672" stop-color="#ce14b2"/>
      <stop offset="0.854" stop-color="#b70ada"/>
      <stop offset="0.966" stop-color="#a703f6"/>
    </linearGradient>
  </defs>
  <g id="Grupo_15328" data-name="Grupo 15328" transform="translate(-888 22)">
    <g id="Grupo_15351" data-name="Grupo 15351">
      <g id="Grupo_15302" data-name="Grupo 15302" transform="translate(-592.333 15.853)">
        <g id="Grupo_15301" data-name="Grupo 15301" transform="translate(1480.333 -37.853)" clip-path="url(#clip-path)">
          <g id="Grupo_15300" data-name="Grupo 15300" transform="translate(7.698 31.219)">
            <ellipse id="Elipse_825" data-name="Elipse 825" cx="157.797" cy="58.263" rx="157.797" ry="58.263" transform="translate(0 175.897)" fill="#7954fc"/>
            <path id="Trazado_8456" data-name="Trazado 8456" d="M1511.914,194.81c-4.147-2.394-4.147-6.276,0-8.67l57.9-33.428c5.924-3.42,15.528-3.42,21.452,0l121.344,70.058c4.147,2.394,4.147,6.276,0,8.67l-50.391,29.093c-4.147,2.394-10.992,6.33-15.759,6.783a22.984,22.984,0,0,1-13.2-2.448Z" transform="translate(-1489.479 -2.926)" fill="#353077" opacity="0.9"/>
            <g id="Grupo_15298" data-name="Grupo 15298" transform="translate(24.186 89.479)">
              <path id="Trazado_8457" data-name="Trazado 8457" d="M1592.139,97.949,1525.4,136.484l-11.47-2.776v14.315a5.167,5.167,0,0,0,2.339,4.051L1649.62,227.8c6.458,3.729,16.93,3.729,23.389,0l64.181-36.9a5.17,5.17,0,0,0,2.339-4.051V173.881L1714.5,168.6Z" transform="translate(-1513.925 -89.75)" fill="#230962"/>
              <path id="Trazado_8458" data-name="Trazado 8458" d="M1592.139,97.949,1525.4,136.484l-11.47-2.776v10.531a5.17,5.17,0,0,0,2.339,4.051l133.356,75.723c6.458,3.729,16.93,3.729,23.389,0l64.181-36.9a5.17,5.17,0,0,0,2.339-4.051v-9.18L1714.5,168.6Z" transform="translate(-1513.925 -89.75)" fill="#511aea"/>
              <path id="Trazado_8459" data-name="Trazado 8459" d="M1517.316,138.008c-4.522-2.61-4.522-6.842,0-9.453l63.128-36.447c6.459-3.729,16.931-3.729,23.39,0l132.3,76.386c4.521,2.61,4.521,6.841,0,9.453L1681.2,209.667c-4.522,2.61-11.984,6.9-17.182,7.4-5.08.482-10.476-.407-14.394-2.67Z" transform="translate(-1513.925 -89.311)" fill="#fff"/>
              <path id="Trazado_8460" data-name="Trazado 8460" d="M1575.473,106.049c.44.51.178,1.279-.585,1.72l-20.641,11.918a1.815,1.815,0,0,1-2.181-.123h0c-.44-.509-.179-1.279.585-1.72l20.641-11.918a1.817,1.817,0,0,1,2.181.123Z" transform="translate(-1515.854 -90.141)" fill="#511aea"/>
              <path id="Trazado_8461" data-name="Trazado 8461" d="M1527.6,139.214l74.021-43.071,122.142,69.9-74.847,43.213Z" transform="translate(-1514.62 -89.659)" fill="#dadada"/>
              <path id="Trazado_8462" data-name="Trazado 8462" d="M1529.018,139.253l72.677-42.29,120.785,69.123-73.493,42.431Z" transform="translate(-1514.693 -89.7)" fill="url(#linear-gradient)"/>
              <path id="Trazado_8463" data-name="Trazado 8463" d="M1605.529,96.964l120.784,69.123-73.492,42.431C1664.822,173.253,1594.839,142.764,1605.529,96.964Z" transform="translate(-1518.526 -89.7)" fill="url(#linear-gradient-2)"/>
            </g>
            <g id="Grupo_15299" data-name="Grupo 15299" transform="translate(122.782 0)">
              <path id="Trazado_8464" data-name="Trazado 8464" d="M1762.578-4.961H1630.9a9.315,9.315,0,0,0-9.315,9.316V76.368a9.316,9.316,0,0,0,9.315,9.316h9.579l17.873,45.511,25.054-45.511h79.171a9.317,9.317,0,0,0,9.316-9.316V4.355A9.316,9.316,0,0,0,1762.578-4.961Z" transform="translate(-1616.996 4.961)" fill="#7707ad"/>
              <path id="Trazado_8465" data-name="Trazado 8465" d="M1758.795-4.961H1627.12a9.316,9.316,0,0,0-9.316,9.316V76.368a9.316,9.316,0,0,0,9.316,9.316h9.578l21.463,45.511,21.463-45.511h79.171a9.316,9.316,0,0,0,9.316-9.316V4.355A9.316,9.316,0,0,0,1758.795-4.961Z" transform="translate(-1617.804 4.961)" fill="#7954fc"/>
            </g>
          </g>
        </g>
      </g>
      <g id="Grupo_15349" data-name="Grupo 15349" transform="translate(684.7 -631.34)">
        <path id="Trazado_8493" data-name="Trazado 8493" d="M429.751,745.033l-.044-.128a1.6,1.6,0,0,0-2.782-.486c-4.054,5.139-8.278,7.528-11.594,6.541-2.744-.812-4.245-3.742-5.021-6.058a1.6,1.6,0,0,0-2.782-.483c-4.054,5.139-8.279,7.528-11.594,6.541-2.932-.868-5.094-4.479-5.93-9.906a36.967,36.967,0,0,1-.363-6.869c9.024-2.335,16.01-6.277,21.173-11.916,3.9-4.257,9.856-15.486,7.851-22.711a8.077,8.077,0,0,0-5.786-5.779c-4.235-1.254-9.09.883-13.676,6.016-4.3,4.818-7.956,11.8-10.285,19.658a61.068,61.068,0,0,0-2.335,12.163,80.6,80.6,0,0,1-10.284,1.524l.278,3.2a85.041,85.041,0,0,0,9.837-1.4,39.293,39.293,0,0,0,.418,6.608c1.048,6.8,3.957,11.24,8.19,12.5,4.1,1.213,8.849-.815,13.286-5.6a10.261,10.261,0,0,0,6.109,5.6,8.431,8.431,0,0,0,2.4.344c3.517,0,7.347-2.1,10.964-6.022a11.9,11.9,0,0,0,10.183,5.744h3.147v-3.209h-3.147A8.685,8.685,0,0,1,429.751,745.033ZM392,720.366c2.2-7.414,5.608-13.96,9.6-18.432,3.066-3.432,6.216-5.287,8.882-5.287a5.2,5.2,0,0,1,1.489.211,4.886,4.886,0,0,1,3.606,3.559c1.524,5.493-3.28,15.486-7.126,19.686-4.534,4.95-10.665,8.492-18.566,10.7A58.65,58.65,0,0,1,392,720.366Z" transform="translate(-15 -38.4)" fill="#fff"/>
        <path id="Trazado_8494" data-name="Trazado 8494" d="M17.586,7.494l.561-4.559a1.875,1.875,0,0,0-.839-1.767A8.9,8.9,0,0,0,10.562.337,1.875,1.875,0,0,0,9.32,1.848L8.759,6.409A2.63,2.63,0,0,0,6.873,8.318a4.905,4.905,0,0,0-5.105,4.3L.023,26.79a3.027,3.027,0,0,0,2.635,3.374l.31-2.528a.48.48,0,0,1-.418-.535L4.3,12.926a2.361,2.361,0,0,1,2.232-2.063l-5,40.625A29.05,29.05,0,0,0,3.233,65.4l.478,1.244,1.143.141.489,3.774,1.39-3.544,1.143.141.765-1.091a29.058,29.058,0,0,0,5.03-13.085l5.276-42.859A2.63,2.63,0,0,0,17.586,7.494ZM15.565,3.069,15.082,7l-3.772-.464L11.793,2.6A8.358,8.358,0,0,1,15.565,3.069Zm-8.9,61.374-1.126-.138A26.513,26.513,0,0,1,3.883,54.171l6.85.843A26.5,26.5,0,0,1,6.667,64.443Zm4.5-11.942-7.088-.873L9.33,8.939c.006-.051.065-.068.094-.073l6.919.852a.085.085,0,0,1,.074.094Z" transform="matrix(0.899, 0.438, -0.438, 0.899, 454.413, 649.152)" fill="#fff"/>
      </g>
    </g>
  </g>
</svg>
