<svg xmlns="http://www.w3.org/2000/svg" width="38.621" height="38.341" viewBox="0 0 38.621 38.341">
  <g id="Grupo_7099" data-name="Grupo 7099" transform="translate(-718 -488.642)">
    <path id="Trazado_8448" data-name="Trazado 8448" d="M750.621,539.375c-.318.079-.643.15-.965.209a1.553,1.553,0,0,0,.565,3.053c.384-.071.77-.155,1.15-.249a1.553,1.553,0,1,0-.75-3.013Z" transform="translate(-9.41 -15.696)" fill="#511aea"/>
    <path id="Trazado_8449" data-name="Trazado 8449" d="M768.054,507.878A1.553,1.553,0,0,0,771,506.9c-.122-.371-.259-.743-.4-1.105a1.552,1.552,0,1,0-2.883,1.153C767.837,507.254,767.951,507.566,768.054,507.878Z" transform="translate(-15.361 -5.01)" fill="#511aea"/>
    <path id="Trazado_8450" data-name="Trazado 8450" d="M758.207,536.07c-.274.181-.557.356-.841.52a1.552,1.552,0,1,0,1.551,2.69c.339-.2.676-.4,1-.619a1.552,1.552,0,0,0-1.711-2.591Z" transform="translate(-11.95 -14.607)" fill="#511aea"/>
    <path id="Trazado_8451" data-name="Trazado 8451" d="M772.533,514.863a1.553,1.553,0,1,0-3.1.122c.013.327.017.659.008.987a1.553,1.553,0,1,0,3.1.069C772.551,515.649,772.548,515.253,772.533,514.863Z" transform="translate(-15.926 -7.658)" fill="#511aea"/>
    <path id="Trazado_8452" data-name="Trazado 8452" d="M766.471,530.129a1.551,1.551,0,0,0-2.174.31c-.2.263-.4.522-.617.772a1.553,1.553,0,0,0,.176,2.188,1.408,1.408,0,0,0,.114.088,1.552,1.552,0,0,0,2.074-.264c.254-.3.5-.608.737-.922A1.552,1.552,0,0,0,766.471,530.129Z" transform="translate(-14.031 -12.751)" fill="#511aea"/>
    <path id="Trazado_8453" data-name="Trazado 8453" d="M770.131,522.106a1.552,1.552,0,0,0-1.945,1.017c-.1.313-.207.627-.324.935a1.552,1.552,0,0,0,.555,1.821,1.579,1.579,0,0,0,.343.182,1.552,1.552,0,0,0,2-.9c.139-.365.268-.739.385-1.111A1.553,1.553,0,0,0,770.131,522.106Z" transform="translate(-15.409 -10.341)" fill="#511aea"/>
    <path id="Trazado_8454" data-name="Trazado 8454" d="M734.438,523.9a16.042,16.042,0,0,1-3.982-1.265c-.015-.008-.028-.017-.044-.023-.3-.14-.594-.291-.882-.447l0,0a16.216,16.216,0,0,1-5.459-23.541,16.133,16.133,0,0,1,3.982-3.962l.056-.039a16.228,16.228,0,0,1,18.189-.146l-1.213,1.752c-.338.488-.13.844.461.79l5.269-.471a.868.868,0,0,0,.786-1.136l-1.415-5.1c-.158-.571-.564-.64-.9-.152l-1.216,1.757a19.173,19.173,0,0,0-14.05-2.988q-.745.129-1.47.313l-.009,0-.057.016a19.148,19.148,0,0,0-10.616,7.115c-.022.026-.045.052-.066.081-.088.119-.175.24-.261.361-.14.2-.278.4-.41.607-.017.025-.029.05-.044.075a19.139,19.139,0,0,0-3.06,11.29c0,.013,0,.026,0,.04.017.389.048.784.09,1.173,0,.025.008.049.012.074.044.391.1.783.166,1.174a19.162,19.162,0,0,0,5.4,10.392l.02.02.007.007a19.6,19.6,0,0,0,2.473,2.067,19.141,19.141,0,0,0,7.7,3.222,1.552,1.552,0,0,0,.548-3.056Z" transform="translate(0 0)" fill="#511aea"/>
    <path id="Trazado_8455" data-name="Trazado 8455" d="M744.029,498.445a1.257,1.257,0,0,0-1.257,1.256v12.515l11.446,5.918a1.256,1.256,0,0,0,1.154-2.232l-10.088-5.215V499.7A1.255,1.255,0,0,0,744.029,498.445Z" transform="translate(-7.671 -3.036)" fill="#511aea"/>
  </g>
</svg>
