<svg xmlns="http://www.w3.org/2000/svg" width="39.34" height="146.34" viewBox="0 0 39.34 146.34">
  <g id="Grupo_15320" data-name="Grupo 15320" transform="translate(-706 -377)">
    <g id="Grupo_43" data-name="Grupo 43" transform="translate(706 377)">
      <g id="Grupo_41" data-name="Grupo 41">
        <path id="Trazado_81" data-name="Trazado 81" d="M797.743,530.371a18.806,18.806,0,1,1,9.387-35.106.806.806,0,0,1-.806,1.4,17.2,17.2,0,1,0,8.613,14.9,17.379,17.379,0,0,0-.152-2.3,17.1,17.1,0,0,0-.992-3.885,17.346,17.346,0,0,0-1.147-2.4.807.807,0,0,1,.7-1.209.812.812,0,0,1,.7.4,18.725,18.725,0,0,1,2.34,6.875,18.819,18.819,0,0,1-18.64,21.318Z" transform="translate(-778.574 -492.394)" fill="#511aea"/>
        <path id="Trazado_82" data-name="Trazado 82" d="M797.607,530.6a19.17,19.17,0,1,1,9.569-35.783,1.168,1.168,0,0,1,.428,1.6,1.2,1.2,0,0,1-1.6.429,16.832,16.832,0,1,0,8.432,14.588,16.986,16.986,0,0,0-.149-2.249,16.7,16.7,0,0,0-.971-3.8,16.94,16.94,0,0,0-1.123-2.348,1.17,1.17,0,0,1,.429-1.6,1.2,1.2,0,0,1,1.6.43,19.07,19.07,0,0,1,2.386,7.008,19.477,19.477,0,0,1,.17,2.56A19.191,19.191,0,0,1,797.607,530.6Zm0-37.612a18.43,18.43,0,1,0,18.279,15.979,18.325,18.325,0,0,0-2.294-6.742.451.451,0,0,0-.6-.162.44.44,0,0,0-.207.269.436.436,0,0,0,.044.335A17.629,17.629,0,0,1,814,505.115a17.436,17.436,0,0,1,1.013,3.968,17.551,17.551,0,1,1-8.639-12.872.454.454,0,0,0,.6-.162.443.443,0,0,0-.161-.6A18.438,18.438,0,0,0,797.607,492.986Z" transform="translate(-778.438 -492.258)" fill="#511aea"/>
      </g>
      <g id="Grupo_42" data-name="Grupo 42" transform="translate(9 12.691)">
        <path id="Trazado_83" data-name="Trazado 83" d="M796.642,521.071a.9.9,0,0,1-.639-.264l-5.381-5.381a.9.9,0,0,1,1.278-1.278l4.43,4.43a.441.441,0,0,0,.624,0l9.811-9.811a.9.9,0,0,1,1.278,1.278l-10.762,10.762A.9.9,0,0,1,796.642,521.071Z" transform="translate(-789.425 -507.586)" fill="#511aea"/>
        <path id="Trazado_84" data-name="Trazado 84" d="M796.076,521.449a1.825,1.825,0,0,1-1.3-.538l-5.381-5.381a1.84,1.84,0,0,1,0-2.6,1.88,1.88,0,0,1,2.6,0l4.082,4.081,9.464-9.463a1.881,1.881,0,0,1,2.6,0,1.839,1.839,0,0,1,0,2.6L797.375,520.91A1.825,1.825,0,0,1,796.076,521.449Zm-.671-2.541.671.662.645-.645A1.406,1.406,0,0,1,795.4,518.908Zm.324-1.546,0,0Zm.694,0,0,0Z" transform="translate(-788.859 -507.03)" fill="#511aea"/>
      </g>
    </g>
    <g id="Grupo_46" data-name="Grupo 46" transform="translate(707 485)">
      <g id="Grupo_44" data-name="Grupo 44">
        <path id="Trazado_85" data-name="Trazado 85" d="M1158.12,525.371a18.806,18.806,0,1,1,9.387-35.106.806.806,0,0,1-.405,1.5.8.8,0,0,1-.4-.108,17.2,17.2,0,1,0,8.613,14.9,17.4,17.4,0,0,0-.152-2.3,17.092,17.092,0,0,0-.992-3.885,17.411,17.411,0,0,0-1.146-2.4.807.807,0,0,1,.7-1.209.813.813,0,0,1,.7.4,18.721,18.721,0,0,1,2.34,6.875,18.82,18.82,0,0,1-18.64,21.318Z" transform="translate(-1138.95 -487.394)" fill="#511aea"/>
        <path id="Trazado_86" data-name="Trazado 86" d="M1157.984,525.6a19.17,19.17,0,1,1,9.569-35.783,1.17,1.17,0,0,1,.428,1.6,1.206,1.206,0,0,1-1.6.429,16.794,16.794,0,1,0,7.311,8.535,17.039,17.039,0,0,0-1.122-2.348,1.17,1.17,0,0,1,.429-1.6,1.2,1.2,0,0,1,1.6.429,19.043,19.043,0,0,1,2.386,7.009,19.4,19.4,0,0,1,.17,2.56A19.191,19.191,0,0,1,1157.984,525.6Zm0-37.612a18.457,18.457,0,1,0,15.985,9.238.451.451,0,0,0-.6-.162.442.442,0,0,0-.163.6,17.745,17.745,0,0,1,1.172,2.449,17.494,17.494,0,0,1,1.013,3.968,17.858,17.858,0,0,1,.155,2.346,17.55,17.55,0,1,1-8.8-15.218.459.459,0,0,0,.6-.163.442.442,0,0,0-.162-.6A18.433,18.433,0,0,0,1157.984,487.986Z" transform="translate(-1138.814 -487.258)" fill="#511aea"/>
      </g>
    </g>
    <g id="Grupo_48" data-name="Grupo 48" transform="translate(706.397 431)">
      <g id="Grupo_47" data-name="Grupo 47" transform="translate(-0.397 0)">
        <path id="Trazado_91" data-name="Trazado 91" d="M945.742,530.371a18.806,18.806,0,1,1,9.387-35.106.806.806,0,0,1-.806,1.4,17.2,17.2,0,1,0,8.613,14.9,17.389,17.389,0,0,0-.152-2.3,17.091,17.091,0,0,0-.992-3.885,17.338,17.338,0,0,0-1.147-2.4.807.807,0,0,1,.7-1.209.812.812,0,0,1,.7.4,18.728,18.728,0,0,1,2.34,6.875,18.819,18.819,0,0,1-18.64,21.318Z" transform="translate(-926.572 -492.394)" fill="#511aea"/>
        <path id="Trazado_92" data-name="Trazado 92" d="M945.606,530.6a19.17,19.17,0,1,1,9.569-35.783,1.168,1.168,0,0,1,.428,1.6,1.205,1.205,0,0,1-1.6.429,16.885,16.885,0,1,0,6.189,6.188,1.17,1.17,0,0,1,.429-1.6,1.2,1.2,0,0,1,1.6.43,19.062,19.062,0,0,1,2.386,7.008,19.19,19.19,0,0,1-19,21.729Zm0-37.612a18.424,18.424,0,1,0,18.279,15.979,18.33,18.33,0,0,0-2.294-6.742.451.451,0,0,0-.6-.162.44.44,0,0,0-.207.269.435.435,0,0,0,.044.335,17.636,17.636,0,0,1,1.172,2.449,17.436,17.436,0,0,1,1.013,3.968,17.551,17.551,0,1,1-8.639-12.872.454.454,0,0,0,.6-.162.443.443,0,0,0-.161-.6A18.437,18.437,0,0,0,945.606,492.986Z" transform="translate(-926.436 -492.258)" fill="#511aea"/>
      </g>
      <g id="Grupo_34" data-name="Grupo 34" transform="translate(11.603 6)">
        <g id="Trazado_66" data-name="Trazado 66" transform="translate(0 4.099)">
          <path id="Trazado_93" data-name="Trazado 93" d="M950.785,515.947h-1.719a4.362,4.362,0,0,1-4.638-4.3c0-2.645,2.124-5.1,4.638-5.1h6.159c.509,0,.924.663.924,1.174s-.415,1.176-.924,1.176h-6.159a2.743,2.743,0,0,0-2.785,2.7c0,.016,0,.032,0,.047,0,1.647,1.44,1.953,2.785,1.953h1.719c.511,0,.927.662.927,1.174S951.3,515.947,950.785,515.947Z" transform="translate(-944.072 -506.186)" fill="#511aea"/>
          <path id="Trazado_94" data-name="Trazado 94" d="M950.645,516.163h-1.72a4.73,4.73,0,0,1-4.995-4.66c0-2.909,2.333-5.46,4.995-5.46h6.16a1.558,1.558,0,0,1,0,3.066h-6.16a2.438,2.438,0,0,0-1.7.674,2.368,2.368,0,0,0-.723,1.677c0,.784.275,1.637,2.427,1.637h1.72a1.557,1.557,0,0,1,0,3.066Zm-1.72-9.4a4.649,4.649,0,0,0-4.279,4.744,3.986,3.986,0,0,0,4.279,3.943h1.72c.26,0,.568-.443.568-.818s-.308-.816-.568-.816h-1.72c-2.086,0-3.143-.778-3.143-2.311a3.109,3.109,0,0,1,.941-2.232,3.222,3.222,0,0,1,2.207-.876h6.155c.253,0,.565-.451.565-.818s-.312-.816-.565-.816Z" transform="translate(-943.93 -506.044)" fill="#511aea"/>
        </g>
        <g id="Trazado_67" data-name="Trazado 67" transform="translate(0.102 11.156)">
          <path id="Trazado_95" data-name="Trazado 95" d="M952.46,525.8H945.5c-.511,0-.925-.663-.925-1.175s.414-1.175.925-1.175h6.963c1.349,0,2.788-.437,2.788-2.077,0-.047,0-.018.009-.064a1.986,1.986,0,0,0-.472-1.786,2.992,2.992,0,0,0-2.325-.775h-2.523c-.511,0-.924-.665-.924-1.176s.413-1.174.924-1.174h2.523a5.023,5.023,0,0,1,3.724,1.7,4.5,4.5,0,0,1,.913,3.529A4.316,4.316,0,0,1,952.46,525.8Z" transform="translate(-944.214 -516.039)" fill="#511aea"/>
          <path id="Trazado_96" data-name="Trazado 96" d="M952.319,526.016h-6.964a1.557,1.557,0,0,1,0-3.065h6.964c1.109,0,2.43-.3,2.43-1.719l.027-.163a1.637,1.637,0,0,0-.4-1.446,2.643,2.643,0,0,0-2.025-.661l-2.559,0a1.558,1.558,0,0,1,0-3.067h2.523a5.39,5.39,0,0,1,3.992,1.826,4.872,4.872,0,0,1,1,3.825C957.278,524.114,955.176,526.016,952.319,526.016Zm-6.964-2.349c-.254,0-.567.45-.567.817s.313.816.567.816h6.964a3.969,3.969,0,0,0,4.279-3.816,4.2,4.2,0,0,0-.836-3.3,4.667,4.667,0,0,0-3.447-1.569H949.8c-.259,0-.566.443-.566.816s.312.818.566.818h2.523a3.34,3.34,0,0,1,2.567.869,2.351,2.351,0,0,1,.579,2.129h0c-.01,1.54-1.155,2.419-3.146,2.419Z" transform="translate(-944.072 -515.897)" fill="#511aea"/>
        </g>
        <g id="Trazado_68" data-name="Trazado 68" transform="translate(5.262)">
          <path id="Trazado_97" data-name="Trazado 97" d="M952.558,506.52c-.512,0-.781-.412-.781-.926v-3.847c0-.512.269-.926.781-.926s.788.414.788.926v3.847C953.343,506.107,953.068,506.52,952.558,506.52Z" transform="translate(-951.419 -500.463)" fill="#511aea"/>
          <path id="Trazado_98" data-name="Trazado 98" d="M952.417,506.736a1.166,1.166,0,0,1-1.14-1.285v-3.846a1.151,1.151,0,1,1,2.286,0v3.846A1.173,1.173,0,0,1,952.417,506.736Zm0-5.7c-.382,0-.423.4-.423.568v3.846c0,.171.042.569.423.569s.43-.4.43-.571v-3.844C952.847,501.473,952.816,501.037,952.417,501.037Z" transform="translate(-951.277 -500.321)" fill="#511aea"/>
        </g>
        <g id="Trazado_69" data-name="Trazado 69" transform="translate(5.262 18.95)">
          <path id="Trazado_99" data-name="Trazado 99" d="M952.558,532.98c-.512,0-.781-.415-.781-.931v-3.843c0-.511.269-.926.781-.926a.818.818,0,0,1,.788.926v3.848C953.343,532.565,953.068,532.98,952.558,532.98Z" transform="translate(-951.419 -526.922)" fill="#511aea"/>
          <path id="Trazado_100" data-name="Trazado 100" d="M952.417,533.2a1.169,1.169,0,0,1-1.14-1.29v-3.842a1.151,1.151,0,1,1,2.286,0v3.848A1.172,1.172,0,0,1,952.417,533.2Zm0-5.7c-.382,0-.423.4-.423.568v3.842c0,.173.042.574.423.574s.43-.436.43-.57v-3.846C952.847,527.932,952.816,527.5,952.417,527.5Z" transform="translate(-951.277 -526.78)" fill="#511aea"/>
        </g>
      </g>
    </g>
    <line id="Línea_13" data-name="Línea 13" y2="19" transform="translate(725.5 413.5)" fill="none" stroke="#511aea" stroke-width="2"/>
    <line id="Línea_14" data-name="Línea 14" y2="19" transform="translate(725.5 467.5)" fill="none" stroke="#511aea" stroke-width="2"/>
    <g id="Grupo_49" data-name="Grupo 49" transform="translate(-275.563 -10.862)">
      <path id="Trazado_101" data-name="Trazado 101" d="M1010.1,507.612H994.375a2.066,2.066,0,0,0-2.063,2.063v10.707a2.065,2.065,0,0,0,2.063,2.063H1010.1a2.065,2.065,0,0,0,2.063-2.063V509.675A2.066,2.066,0,0,0,1010.1,507.612Zm-15.729.967H1010.1a1.1,1.1,0,0,1,.923.51l-7.934,6.95-.023.022a1.175,1.175,0,0,1-1.661,0l-.023-.022-7.934-6.95A1.094,1.094,0,0,1,994.375,508.579Zm15.729,12.9H994.375a1.1,1.1,0,0,1-1.1-1.1v-10.16l7.459,6.534a2.143,2.143,0,0,0,3,0l7.458-6.533v10.159A1.1,1.1,0,0,1,1010.1,521.479Z" transform="translate(-0.264 -0.265)" fill="#511aea"/>
      <path id="Trazado_102" data-name="Trazado 102" d="M1009.84,522.666H994.111a2.551,2.551,0,0,1-2.548-2.548V509.411a2.552,2.552,0,0,1,2.548-2.549h15.729a2.552,2.552,0,0,1,2.548,2.549v10.707A2.551,2.551,0,0,1,1009.84,522.666ZM993.5,511.028v9.09a.611.611,0,0,0,.611.611h15.729a.612.612,0,0,0,.611-.611v-9.089l-6.654,5.828a2.628,2.628,0,0,1-3.664-.02Zm.428-2.2,7.513,6.581a.686.686,0,0,0,1.021.045l7.56-6.625a.618.618,0,0,0-.183-.029H994.111A.614.614,0,0,0,993.928,508.828Z" transform="translate(0)" fill="#511aea"/>
    </g>
  </g>
</svg>
