<svg xmlns="http://www.w3.org/2000/svg" width="33.365" height="25.454" viewBox="0 0 33.365 25.454">
  <g id="Grupo_15309" data-name="Grupo 15309" transform="translate(-1811.299 -689.447)">
    <rect id="Rectángulo_480" data-name="Rectángulo 480" width="2.738" height="1.565" transform="translate(1821.92 710.473)" fill="#fff"/>
    <rect id="Rectángulo_481" data-name="Rectángulo 481" width="2.738" height="1.565" transform="translate(1816.546 710.473)" fill="#fff"/>
    <rect id="Rectángulo_482" data-name="Rectángulo 482" width="2.739" height="1.565" transform="translate(1827.294 710.473)" fill="#fff"/>
    <path id="Trazado_7351" data-name="Trazado 7351" d="M1811.3,714.8a1.09,1.09,0,0,0,1.117,1.055H1839.5a1.091,1.091,0,0,0,1.119-1.055V704.5H1811.3Zm20.594-4.155h4.559v3.13h-4.559Zm-5.388,0h4.56v3.13h-4.56Zm-5.388,0h4.559v3.13h-4.559Zm-5.387,0h4.558v3.13h-4.558Z" transform="translate(0 -0.958)" fill="#fff"/>
    <rect id="Rectángulo_483" data-name="Rectángulo 483" width="2.738" height="1.565" transform="translate(1832.669 710.473)" fill="#fff"/>
    <path id="Trazado_7352" data-name="Trazado 7352" d="M1839.5,697.618h-27.086a1.09,1.09,0,0,0-1.117,1.056v2.418h29.322v-2.418A1.091,1.091,0,0,0,1839.5,697.618Z" transform="translate(0 -0.779)" fill="#fff"/>
    <path id="Trazado_7353" data-name="Trazado 7353" d="M1843.356,689.447h-27.019a1.739,1.739,0,0,0-1.785,1.69v4H1839.1a3.047,3.047,0,0,1,3.125,2.956v9.855h1.13a1.74,1.74,0,0,0,1.786-1.689V691.137A1.74,1.74,0,0,0,1843.356,689.447Z" transform="translate(-0.478)" fill="#fff"/>
  </g>
</svg>
