<svg xmlns="http://www.w3.org/2000/svg" width="18.238" height="34.503" viewBox="0 0 18.238 34.503">
  <g id="Grupo_34" data-name="Grupo 34" transform="translate(0.5 0.5)">
    <path id="Trazado_66" data-name="Trazado 66" d="M-637.034,891.256h-2.331c-3.707,0-6.3-2.581-6.3-5.846,0-3.595,2.887-6.933,6.3-6.933h8.37c.691,0,1.256.9,1.256,1.6s-.565,1.6-1.256,1.6h-8.37a3.73,3.73,0,0,0-3.786,3.738c0,2.234,1.958,2.654,3.786,2.654h2.331c.695,0,1.259.9,1.259,1.6S-636.339,891.256-637.034,891.256Z" transform="translate(645.668 -872.9)" fill="#fff" stroke="#fff" stroke-width="1"/>
    <path id="Trazado_67" data-name="Trazado 67" d="M-634.812,901.1h-9.463c-.694,0-1.257-.9-1.257-1.6s.563-1.6,1.257-1.6h9.463c1.832,0,3.789-.594,3.789-2.824,0-.064.006-.024.013-.088a2.7,2.7,0,0,0-.642-2.428,4.067,4.067,0,0,0-3.16-1.053h-3.428c-.694,0-1.256-.9-1.256-1.6s.562-1.6,1.256-1.6h3.428a6.823,6.823,0,0,1,5.065,2.316,6.11,6.11,0,0,1,1.241,4.8C-628.554,898.649-631.133,901.1-634.812,901.1Z" transform="translate(645.664 -873.162)" fill="#fff" stroke="#fff" stroke-width="1"/>
    <path id="Trazado_68" data-name="Trazado 68" d="M-637.265,880.493c-.7,0-1.062-.561-1.062-1.259v-5.228c0-.7.366-1.259,1.062-1.259s1.067.563,1.067,1.259v5.228C-636.2,879.933-636.572,880.493-637.265,880.493Z" transform="translate(645.473 -872.748)" fill="#fff" stroke="#fff" stroke-width="1"/>
    <path id="Trazado_69" data-name="Trazado 69" d="M-637.265,906.954c-.7,0-1.062-.565-1.062-1.261v-5.23c0-.694.366-1.259,1.062-1.259s1.067.565,1.067,1.259v5.23C-636.2,906.39-636.572,906.954-637.265,906.954Z" transform="translate(645.473 -873.452)" fill="#fff" stroke="#fff" stroke-width="1"/>
  </g>
</svg>
