<svg width="33" height="21" viewBox="0 0 33 21" fill="none" xmlns="http://www.w3.org/2000/svg">
<path d="M32.6479 7.466V18.935C32.6365 19.2555 32.4995 19.5587 32.2667 19.7792C32.0338 19.9998 31.7236 20.12 31.403 20.1141H1.24695C0.925695 20.1221 0.614314 20.0026 0.380981 19.7817C0.147648 19.5607 0.0113733 19.2562 0.00195312 18.935V7.466H32.6479Z" fill="white"/>
<path d="M31.401 0.00098713H1.24396C0.923232 -0.00735827 0.612297 0.111639 0.37915 0.332042C0.146003 0.552444 0.00967782 0.856324 0 1.17701V3.87098H32.647V1.17701C32.637 0.856057 32.5004 0.55208 32.2668 0.331676C32.0333 0.111271 31.722 -0.00763079 31.401 0.00098713V0.00098713Z" fill="white"/>
</svg>
