<svg id="Grupo_6260" data-name="Grupo 6260" xmlns="http://www.w3.org/2000/svg" width="31.051" height="31.655" viewBox="0 0 31.051 31.655">
  <path id="Trazado_7354" data-name="Trazado 7354" d="M3169.281,816.923c0-.532.326-.8.594-.8h23.6v-1.869h-4.615a3.682,3.682,0,0,1-3.515-4.773h0a3.618,3.618,0,0,1,.182-.47l.014-.032.006-.012a3.684,3.684,0,0,1,3.311-2.074h4.615v-1.818h-29.449v11.048h2.617c.662,0,.683.529.683.8a.665.665,0,0,1-.6.726.64.64,0,0,1-.087,0h-2.617v1.193a1.185,1.185,0,0,0,1.185,1.185h27.079a1.185,1.185,0,0,0,1.185-1.185h0v-1.193h-23.512a.685.685,0,0,1-.681-.69C3169.28,816.949,3169.28,816.936,3169.281,816.923Z" transform="translate(-3164.024 -788.376)" fill="#fff"/>
  <path id="Trazado_7355" data-name="Trazado 7355" d="M3218.478,815.115a1,1,0,1,0,1,1.008v0A1,1,0,0,0,3218.478,815.115Z" transform="translate(-3193.527 -793.916)" fill="#fff"/>
  <path id="Trazado_7356" data-name="Trazado 7356" d="M3193.478,797.419a1.186,1.186,0,0,0-1.185-1.185h-27.079a1.185,1.185,0,0,0-1.185,1.185h0v.958h29.45Z" transform="translate(-3164.026 -783.494)" fill="#fff"/>
  <path id="Trazado_7357" data-name="Trazado 7357" d="M3222.22,811.295h-6.094a2.712,2.712,0,0,0-2.383,1.419c-.021.038-.041.077-.061.117-.038.078-.072.159-.1.243a2.723,2.723,0,0,0,0,1.862c.031.083.065.164.1.243.02.039.04.078.061.116a2.712,2.712,0,0,0,2.383,1.419h6.094a.12.12,0,0,0,.12-.12v-5.175a.121.121,0,0,0-.116-.124Zm-5.98,4.678a1.968,1.968,0,1,1,1.969-1.969,1.968,1.968,0,0,1-1.969,1.969Z" transform="translate(-3191.289 -791.808)" fill="#fff"/>
  <path id="Trazado_7358" data-name="Trazado 7358" d="M3171.626,775.335l1.31,4.087a5.753,5.753,0,0,1,.644-.066l-1.214-3.789a.805.805,0,0,1,.527-1.009h.006l19.25-6.018a.821.821,0,0,1,1.025.528l2.535,7.888c.178.535.07.815-.532,1.009l-4.428,1.386h1.938l3.141-.982a.912.912,0,0,0,.647-1.109c-.006-.025-.014-.049-.022-.073l-2.81-8.735a.95.95,0,0,0-1.2-.61h0l-20.2,6.314a.94.94,0,0,0-.621,1.176h0Z" transform="translate(-3168.197 -767.796)" fill="#fff"/>
  <path id="Trazado_7359" data-name="Trazado 7359" d="M3193.32,779.92a5.6,5.6,0,0,1,.273,1.55.517.517,0,0,0,.531.5.538.538,0,0,0,.138-.022l3.754-1.174a.656.656,0,0,0,.428-.82l-1.011-3.149a.509.509,0,0,0-.413-.352,2.709,2.709,0,0,1-2.121-2.494.514.514,0,0,0-.561-.463.494.494,0,0,0-.1.021l-13.066,4.09a.512.512,0,0,0-.34.64.489.489,0,0,0,.042.1,2.673,2.673,0,0,1-.267,3.246.505.505,0,0,0-.135.53.515.515,0,0,0,.491.358h4.741c-.019-.053-.035-.1-.055-.156l-.009-.027a3.845,3.845,0,0,1,2.513-5.19,3.986,3.986,0,0,1,5.07,2.467C3193.257,779.689,3193.291,779.8,3193.32,779.92Z" transform="translate(-3173.086 -770.942)" fill="#fff" fill-rule="evenodd"/>
  <path id="Trazado_7360" data-name="Trazado 7360" d="M3199.927,788.608a1.2,1.2,0,0,0,.136-1.169c-.274-.8-.925-.864-1.5-.875l-.415-1.193c.422-.114.638.022.782-.027.177-.061.182-.314.142-.425-.1-.288-.707-.216-1.112-.091l-.054-.159a.182.182,0,0,0-.223-.074.164.164,0,0,0-.124.194l.059.17a1.156,1.156,0,0,0-.747,1.455l.009.027c.261.753.923.761,1.517.765l.479,1.382c-.027.008-.053.013-.08.018Zm-2.481-2.428c-.107-.306.077-.535.393-.69l.371,1.07c-.352-.008-.648-.044-.764-.38Zm1.305,1.049a.729.729,0,0,1,.747.479.592.592,0,0,1-.315.762Z" transform="translate(-3182.124 -777.062)" fill="#fff"/>
</svg>
